<?xml version="1.0" encoding="UTF-8" standalone="no"?>
<!DOCTYPE svg PUBLIC "-//W3C//DTD SVG 1.1//EN"
 "http://www.w3.org/Graphics/SVG/1.1/DTD/svg11.dtd">
<!-- Generated by graphviz version 2.26.3 (20100126.1600)
 -->
<!-- Title: G Pages: 1 -->
<svg width="149pt" height="132pt"
 viewBox="0.00 0.00 149.00 132.00" xmlns="http://www.w3.org/2000/svg" xmlns:xlink="http://www.w3.org/1999/xlink">
<g id="graph1" class="graph" transform="scale(1 1) rotate(0) translate(4 128)">
<title>G</title>
<polygon fill="white" stroke="white" points="-4,5 -4,-128 146,-128 146,5 -4,5"/>
<g id="graph2" class="cluster"><title>cluster_Global</title>
<polyline fill="none" stroke="gray" points="20,-8 121,-8 "/>
<path fill="none" stroke="gray" d="M121,-8C127,-8 133,-14 133,-20"/>
<polyline fill="none" stroke="gray" points="133,-20 133,-104 "/>
<path fill="none" stroke="gray" d="M133,-104C133,-110 127,-116 121,-116"/>
<polyline fill="none" stroke="gray" points="121,-116 20,-116 "/>
<path fill="none" stroke="gray" d="M20,-116C14,-116 8,-110 8,-104"/>
<polyline fill="none" stroke="gray" points="8,-104 8,-20 "/>
<path fill="none" stroke="gray" d="M8,-20C8,-14 14,-8 20,-8"/>
<text text-anchor="middle" x="70.5" y="-102.1" font-family="Times Roman,serif" font-size="11.00" fill="gray">\</text>
</g>
<g id="graph3" class="cluster"><title>cluster_\SearchWordsSQL</title>
<polyline fill="none" stroke="gray" points="28,-16 113,-16 "/>
<path fill="none" stroke="gray" d="M113,-16C119,-16 125,-22 125,-28"/>
<polyline fill="none" stroke="gray" points="125,-28 125,-76 "/>
<path fill="none" stroke="gray" d="M125,-76C125,-82 119,-88 113,-88"/>
<polyline fill="none" stroke="gray" points="113,-88 28,-88 "/>
<path fill="none" stroke="gray" d="M28,-88C22,-88 16,-82 16,-76"/>
<polyline fill="none" stroke="gray" points="16,-76 16,-28 "/>
<path fill="none" stroke="gray" d="M16,-28C16,-22 22,-16 28,-16"/>
<text text-anchor="middle" x="70.5" y="-74.1" font-family="Times Roman,serif" font-size="11.00" fill="gray">SearchWordsSQL</text>
</g>
<!-- \\SearchWordsSQL\\SQLBuilder -->
<g id="node3" class="node"><title>\\SearchWordsSQL\\SQLBuilder</title>
<polygon fill="none" stroke="black" points="109,-60 33,-60 33,-24 109,-24 109,-60"/>
<text text-anchor="middle" x="71" y="-38.1" font-family="Times Roman,serif" font-size="11.00">SQLBuilder</text>
</g>
</g>
</svg>
